<svg width="1920" height="1080" viewBox="0 0 1920 1080" fill="none" xmlns="http://www.w3.org/2000/svg">
  <defs>
    <linearGradient id="bg" x1="0" y1="0" x2="1920" y2="1080" gradientUnits="userSpaceOnUse">
      <stop stop-color="#0A192F"/>
      <stop offset="1" stop-color="#1A365D"/>
    </linearGradient>
    <filter id="panelShadow" x="1090" y="70" width="760" height="940" filterUnits="userSpaceOnUse" color-interpolation-filters="sRGB">
      <feDropShadow dx="0" dy="12" stdDeviation="18" flood-color="#020617" flood-opacity="0.55"/>
    </filter>
  </defs>
  <rect width="1920" height="1080" fill="url(#bg)"/>
  <text x="82" y="128" fill="white" font-size="32" font-family="Inter, Arial, sans-serif" font-weight="700">CHARACTER</text>
  <rect x="80" y="160" width="1040" height="800" rx="12" stroke="#64748B" stroke-opacity="0.7" stroke-width="2" stroke-dasharray="10 8" fill="#1E293B" fill-opacity="0.24"/>
  <circle cx="600" cy="356" r="52" fill="#94A3B8" fill-opacity="0.36"/>
  <rect x="548" y="420" width="104" height="210" rx="52" fill="#94A3B8" fill-opacity="0.4"/>
  <path d="M518 820C518 740 556 666 600 666C644 666 682 740 682 820" fill="#94A3B8" fill-opacity="0.3"/>
  <text x="520" y="878" fill="#CBD5E1" font-size="22" font-family="Inter, Arial, sans-serif" font-weight="600">3D character placeholder</text>
  <rect x="92" y="914" width="130" height="34" rx="6" fill="black" fill-opacity="0.25"/>
  <rect x="238" y="914" width="130" height="34" rx="6" fill="black" fill-opacity="0.25"/>
  <text x="106" y="936" fill="#22C55E" font-size="12" font-family="monospace">FPS 120</text>
  <text x="252" y="936" fill="#F97316" font-size="12" font-family="monospace">PING 35</text>
  <g filter="url(#panelShadow)">
    <rect x="1120" y="96" width="708" height="888" rx="12" fill="#1E293B" fill-opacity="0.8" stroke="#3B82F6"/>
  </g>
  <rect x="1144" y="126" width="102" height="40" rx="8" fill="#FFD700" stroke="#FFD700"/>
  <text x="1172" y="151" fill="#020617" font-size="14" font-family="Inter, Arial, sans-serif" font-weight="700">Outfit</text>
  <rect x="1256" y="126" width="122" height="40" rx="8" stroke="#475569"/>
  <text x="1278" y="151" fill="white" font-size="14" font-family="Inter, Arial, sans-serif" font-weight="600">Back Bling</text>
  <rect x="1388" y="126" width="94" height="40" rx="8" stroke="#475569"/>
  <text x="1414" y="151" fill="white" font-size="14" font-family="Inter, Arial, sans-serif" font-weight="600">Pickaxe</text>
  <rect x="1492" y="126" width="84" height="40" rx="8" stroke="#475569"/>
  <text x="1516" y="151" fill="white" font-size="14" font-family="Inter, Arial, sans-serif" font-weight="600">Glider</text>
  <rect x="1586" y="126" width="82" height="40" rx="8" stroke="#475569"/>
  <text x="1612" y="151" fill="white" font-size="14" font-family="Inter, Arial, sans-serif" font-weight="600">Emote</text>
  <rect x="1678" y="126" width="64" height="40" rx="8" stroke="#475569"/>
  <text x="1702" y="151" fill="white" font-size="14" font-family="Inter, Arial, sans-serif" font-weight="600">Wrap</text>
  <rect x="1144" y="188" width="472" height="42" rx="8" fill="#334155" stroke="#3B82F6"/>
  <text x="1170" y="214" fill="white" font-size="14" font-family="Inter, Arial, sans-serif" font-weight="600">Search items</text>
  <rect x="1630" y="188" width="164" height="42" rx="8" fill="#475569"/>
  <text x="1662" y="214" fill="white" font-size="14" font-family="Inter, Arial, sans-serif" font-weight="600">Sort/Filter</text>
  <rect x="1760" y="196" width="24" height="24" rx="12" fill="#FFD700"/>
  <text x="1768" y="212" fill="black" font-size="12" font-family="Inter, Arial, sans-serif" font-weight="800">2</text>
  <rect x="1144" y="252" width="124" height="148" rx="8" fill="#1E293B" stroke="#3B82F6"/>
  <rect x="1278" y="252" width="124" height="148" rx="8" fill="#1E293B" stroke="#334155"/>
  <rect x="1412" y="252" width="124" height="148" rx="8" fill="#1E293B" stroke="#334155"/>
  <rect x="1546" y="252" width="124" height="148" rx="8" fill="#1E293B" stroke="#334155"/>
  <rect x="1680" y="252" width="124" height="148" rx="8" fill="#1E293B" stroke="#334155"/>
  <rect x="1248" y="262" width="18" height="18" rx="4" fill="#FFD700"/>
  <text x="1250" y="275" fill="black" font-size="8" font-family="Inter, Arial, sans-serif" font-weight="800">NEW</text>
  <rect x="1144" y="412" width="124" height="148" rx="8" fill="#1E293B" stroke="#334155"/>
  <rect x="1278" y="412" width="124" height="148" rx="8" fill="#1E293B" stroke="#334155"/>
  <rect x="1412" y="412" width="124" height="148" rx="8" fill="#1E293B" stroke="#334155"/>
  <rect x="1546" y="412" width="124" height="148" rx="8" fill="#1E293B" stroke="#334155"/>
  <rect x="1680" y="412" width="124" height="148" rx="8" fill="#1E293B" stroke="#334155"/>
  <rect x="1144" y="572" width="124" height="148" rx="8" fill="#1E293B" stroke="#334155"/>
  <rect x="1278" y="572" width="124" height="148" rx="8" fill="#1E293B" stroke="#334155"/>
  <rect x="1412" y="572" width="124" height="148" rx="8" fill="#1E293B" stroke="#334155"/>
  <rect x="1546" y="572" width="124" height="148" rx="8" fill="#1E293B" stroke="#334155"/>
  <rect x="1680" y="572" width="124" height="148" rx="8" fill="#1E293B" stroke="#334155"/>
  <rect x="1144" y="732" width="124" height="148" rx="8" fill="#1E293B" stroke="#64748B" stroke-dasharray="6 4"/>
  <path d="M1206 784v42M1185 805h42" stroke="#94A3B8" stroke-width="2"/>
  <rect x="1278" y="732" width="124" height="148" rx="8" fill="#1E293B" stroke="#64748B" stroke-dasharray="6 4"/>
  <path d="M1340 784v42M1319 805h42" stroke="#94A3B8" stroke-width="2"/>
  <rect x="1544" y="916" width="120" height="40" rx="6" fill="#475569"/>
  <rect x="1678" y="916" width="120" height="40" rx="6" fill="#475569"/>
  <text x="1588" y="942" fill="white" font-size="14" font-family="Inter, Arial, sans-serif" font-weight="600">Edit</text>
  <text x="1723" y="942" fill="white" font-size="14" font-family="Inter, Arial, sans-serif" font-weight="600">Back</text>
</svg>
